HIERARCHY
ROOT Hips
{
	OFFSET 0.000000 0.000000 0.000000
	CHANNELS 6 Xposition Yposition Zposition Xrotation Yrotation Zrotation
	JOINT LeftUpLeg_virtual
	{
		OFFSET 0.000000 0.000000 0.000000
		CHANNELS 3 Xrotation Yrotation Zrotation
		JOINT LeftUpLeg
		{
			OFFSET 10.205400 -3.823500 0.155100
			CHANNELS 3 Xrotation Yrotation Zrotation
			JOINT LeftLeg
			{
				OFFSET 0.708757 -12.982077 0.567790
				CHANNELS 3 Xrotation Yrotation Zrotation
				JOINT LeftFoot
				{
					OFFSET -0.708756 -10.717838 -2.184338
					CHANNELS 3 Xrotation Yrotation Zrotation
					JOINT LeftToeBase
					{
						OFFSET 0.108149 -7.191104 7.560241
						CHANNELS 3 Xrotation Yrotation Zrotation
						JOINT LeftToe_End
						{
							OFFSET 0.070230 0.081724 4.490308
							CHANNELS 3 Xrotation Yrotation Zrotation
							End Site
							{
								OFFSET 0 0 0
							}
						}
					}
				}
			}
		}
	}
	JOINT RightUpLeg_virtual
	{
		OFFSET 0.000000 0.000000 0.000000
		CHANNELS 3 Xrotation Yrotation Zrotation
		JOINT RightUpLeg
		{
			OFFSET -10.205400 -3.823500 0.005500
			CHANNELS 3 Xrotation Yrotation Zrotation
			JOINT RightLeg
			{
				OFFSET -0.708756 -12.982134 0.610632
				CHANNELS 3 Xrotation Yrotation Zrotation
				JOINT RightFoot
				{
					OFFSET 0.708754 -10.717769 -1.945823
					CHANNELS 3 Xrotation Yrotation Zrotation
					JOINT RightToeBase
					{
						OFFSET -0.108140 -7.191069 7.372968
						CHANNELS 3 Xrotation Yrotation Zrotation
						JOINT RightToe_End
						{
							OFFSET -0.070227 0.081735 4.479403
							CHANNELS 3 Xrotation Yrotation Zrotation
							End Site
							{
								OFFSET 0 0 0
							}
						}
					}
				}
			}
		}
	}
	JOINT Spine_virtual
	{
		OFFSET 0.000000 0.000000 0.000000
		CHANNELS 3 Xrotation Yrotation Zrotation
		JOINT Spine
		{
			OFFSET 0.000000 6.876099 0.125700
			CHANNELS 3 Xrotation Yrotation Zrotation
			JOINT Spine1
			{
				OFFSET 0.000000 5.730043 0.104720
				CHANNELS 3 Xrotation Yrotation Zrotation
				JOINT Spine1_split
				{
					OFFSET 0.000000 5.730043 0.104720
					CHANNELS 3 Xrotation Yrotation Zrotation
					JOINT Spine2
					{
						OFFSET 0.000000 5.730043 0.104720
						CHANNELS 3 Xrotation Yrotation Zrotation
						JOINT Neck_virtual
						{
							OFFSET 0.000000 0.000000 0.000000
							CHANNELS 3 Xrotation Yrotation Zrotation
							JOINT Neck
							{
								OFFSET 0.000000 10.314075 0.188496
								CHANNELS 3 Xrotation Yrotation Zrotation
								JOINT Head
								{
									OFFSET 0.000000 7.643700 -2.377400
									CHANNELS 3 Xrotation Yrotation Zrotation
									JOINT HeadTop_End
									{
										OFFSET 0.000000 43.788605 -13.619600
										CHANNELS 3 Xrotation Yrotation Zrotation
										End Site
										{
											OFFSET 0 0 0
										}
									}
								}
							}
						}
						JOINT LeftShoulder_virtual
						{
							OFFSET 0.000000 0.000000 0.000000
							CHANNELS 3 Xrotation Yrotation Zrotation
							JOINT LeftShoulder
							{
								OFFSET 2.196100 4.412489 0.087492
								CHANNELS 3 Xrotation Yrotation Zrotation
								JOINT LeftShoulder_split
								{
									OFFSET 2.196100 4.412489 0.087492
									CHANNELS 3 Xrotation Yrotation Zrotation
									JOINT LeftArm
									{
										OFFSET 8.771219 -2.981674 -0.026999
										CHANNELS 3 Xrotation Yrotation Zrotation
										JOINT LeftForeArm
										{
											OFFSET 8.512804 0.000000 -0.000000
											CHANNELS 3 Xrotation Yrotation Zrotation
											JOINT LeftHand
											{
												OFFSET 18.484802 0.000000 -0.000000
												CHANNELS 3 Xrotation Yrotation Zrotation
												End Site
												{
													OFFSET 0 0 0
												}
											}
										}
									}
								}
							}
						}
						JOINT RightShoulder_virtual
						{
							OFFSET 0.000000 0.000000 0.000000
							CHANNELS 3 Xrotation Yrotation Zrotation
							JOINT RightShoulder
							{
								OFFSET -2.196100 4.412496 0.070690
								CHANNELS 3 Xrotation Yrotation Zrotation
								JOINT RightShoulder_split
								{
									OFFSET -2.196100 4.412496 0.070690
									CHANNELS 3 Xrotation Yrotation Zrotation
									JOINT RightArm
									{
										OFFSET -8.771282 -2.981682 -0.094208
										CHANNELS 3 Xrotation Yrotation Zrotation
										JOINT RightForeArm
										{
											OFFSET -8.494598 0.000000 0.000000
											CHANNELS 3 Xrotation Yrotation Zrotation
											JOINT RightHand
											{
												OFFSET -18.483803 0.000000 0.000001
												CHANNELS 3 Xrotation Yrotation Zrotation
												End Site
												{
													OFFSET 0 0 0
												}
											}
										}
									}
								}
							}
						}
					}
				}
			}
		}
	}
}
MOTION
Frames: 9
Frame Time: 0.03333333
4.142505 25.255522 -7.679567 0.000000 0.000000 0.000000 3.183698 -68.917558 8.173348 -25.526172 -12.443906 31.693297 50.644671 -20.067031 4.655034 -13.147960 5.423367 -31.857850 -13.654688 -1.831710 -2.136863 0.000000 0.000000 0.000000 2.412505 -66.034125 7.906419 -13.475884 6.224707 -36.774876 46.995827 28.980540 -7.709079 -26.585630 -25.854805 52.654874 5.825965 15.000958 -29.389030 0.000000 0.000000 0.000000 4.139074 -63.372121 6.632629 -0.121413 3.872644 3.442365 3.982624 2.486577 1.981755 0.242697 -0.358720 0.086961 0.000000 0.000000 0.000000 4.497821 4.665856 2.023163 -7.022308 15.002777 -1.926666 -5.742231 15.786445 -3.721835 0.000000 0.000000 0.000000 2.427405 3.837023 0.792853 0.977516 6.650017 -4.990363 -2.664125 -0.669186 -0.824567 -11.944949 9.755209 -62.635437 162.626422 -67.975429 156.811103 0.000000 0.000000 0.000000 5.703730 4.306263 0.289743 -4.693819 0.238063 6.799511 0.602700 3.243392 8.314902 -6.596391 42.739093 47.424838 -171.629636 65.572207 176.423267 0.000000 0.000000 0.000000 
4.098355 25.067684 -7.512672 0.000000 0.000000 0.000000 0.300922 -69.339322 5.301023 -26.263215 -12.185834 32.947173 51.268148 -21.060105 6.195554 -15.605681 3.869764 -30.364627 -12.717029 -1.648613 -3.179838 0.000000 0.000000 0.000000 1.564842 -65.810853 6.218140 -10.595783 2.611004 -35.572612 44.780650 26.426588 -6.751833 -34.365509 -27.812006 42.451323 5.150546 17.306381 -30.592653 0.000000 0.000000 0.000000 1.609747 -63.334240 4.168639 -0.590395 4.061748 3.717601 3.842793 2.854547 2.290757 0.248429 -0.689939 0.104248 0.000000 0.000000 0.000000 4.840574 5.052116 2.277337 -7.115098 15.213884 -2.969271 -4.331931 16.808343 -4.952872 0.000000 0.000000 0.000000 2.816503 4.056447 1.032529 0.577506 6.469278 -4.781624 -0.959392 0.235337 -1.245960 -10.230481 7.555717 -63.443585 162.009205 -67.112626 156.399898 0.000000 0.000000 0.000000 5.871082 4.638305 0.631636 -4.716611 -1.305416 6.173324 0.457627 3.607866 8.547557 -6.756392 42.700703 47.268181 -172.416145 65.308896 177.545194 0.000000 0.000000 0.000000 
4.028350 25.887039 -7.405775 0.000000 0.000000 0.000000 -0.863645 -67.675591 3.882156 -28.443887 -11.568665 32.503583 48.064004 -23.118566 7.023043 -13.020350 0.760914 -32.817990 -9.512734 -1.677476 -3.320982 0.000000 0.000000 0.000000 0.888634 -64.084468 5.109597 -10.596619 0.723206 -35.569942 44.384489 26.363103 -5.928719 -27.960947 -24.660055 40.996503 -0.300117 18.742036 -27.934371 0.000000 0.000000 0.000000 -0.781855 -61.194766 2.162600 -1.181656 3.962211 3.601825 3.550161 2.844693 2.404207 0.144154 -0.944374 0.044336 0.000000 0.000000 0.000000 4.874180 5.091649 2.383558 -7.026612 15.382551 -3.958558 -2.935272 17.529896 -5.858725 0.000000 0.000000 0.000000 2.977498 3.914568 1.158884 0.250180 6.106826 -4.288222 1.121983 0.736148 -1.135130 -9.059620 4.112388 -62.859652 162.501525 -66.236668 157.322288 0.000000 0.000000 0.000000 5.766717 4.536801 0.877945 -4.743255 -2.327992 5.400244 0.752525 3.932335 8.367558 -5.649586 41.470259 46.590551 -173.755450 63.989174 178.959426 0.000000 0.000000 0.000000 
3.937986 27.585197 -7.393156 0.000000 0.000000 0.000000 -0.717945 -63.650929 3.486596 -30.843345 -10.351076 30.384851 41.199848 -24.796891 6.371795 -6.004337 -3.418533 -37.036895 -8.513373 -1.940136 -2.012684 0.000000 0.000000 0.000000 -0.308615 -60.585076 3.989800 -14.021247 1.621275 -37.530155 46.826677 29.740385 -5.774415 -9.026654 -15.278708 46.276205 -3.575689 17.384729 -22.484887 0.000000 0.000000 0.000000 -2.103956 -57.307766 1.202714 -1.550872 3.593345 3.207286 3.186463 2.455077 2.367030 -0.018236 -0.970927 0.014489 0.000000 0.000000 0.000000 4.463070 4.747960 2.358009 -6.725054 15.481602 -4.774909 -1.955304 17.943081 -6.200920 0.000000 0.000000 0.000000 2.838366 3.433391 1.204359 0.048211 5.642861 -3.881276 3.042419 0.806400 -0.511328 -8.370802 0.213015 -61.362331 163.995000 -65.430118 159.488797 0.000000 0.000000 0.000000 5.417968 4.034671 1.010380 -4.791958 -2.697269 4.492701 1.313942 3.853054 7.847394 -3.601809 39.025136 45.328591 -175.434597 61.894655 -179.592092 0.000000 0.000000 0.000000 
3.819678 29.718670 -7.421892 0.000000 0.000000 0.000000 0.312245 -58.023953 3.679635 -32.810163 -8.373867 27.173981 33.934709 -23.765126 4.906278 2.714763 -6.608030 -38.915211 -9.220783 -2.276239 -0.874678 0.000000 0.000000 0.000000 0.301979 -55.137184 3.924947 -17.083493 3.175298 -38.091777 46.904982 31.971651 -5.122703 7.230168 -5.927957 45.378739 -5.197737 14.347885 -17.071638 0.000000 0.000000 0.000000 -2.630926 -52.372603 0.901441 -1.639985 3.068216 2.777511 2.865445 1.770667 2.283284 -0.124481 -0.847625 -0.024828 0.000000 0.000000 0.000000 3.590308 4.090038 2.245115 -6.276396 15.429529 -5.365128 -1.866903 18.524701 -5.975295 0.000000 0.000000 0.000000 2.478712 2.716470 1.207517 0.016315 5.080909 -3.886092 4.261103 0.744541 -0.014888 -7.931104 -3.292283 -59.634102 166.468089 -64.630897 162.780483 0.000000 0.000000 0.000000 4.963328 3.311716 1.047384 -4.871801 -2.410464 3.677946 1.958393 3.524974 7.223579 -1.524252 35.444058 43.773982 -177.118621 59.802520 -178.415155 0.000000 0.000000 0.000000 
3.716395 31.771658 -7.474394 0.000000 0.000000 0.000000 1.349261 -52.382739 3.565706 -33.275247 -4.998859 23.905025 28.254787 -19.293990 3.376588 9.379379 -6.027393 -36.295888 -10.443086 -2.513583 -0.753661 0.000000 0.000000 0.000000 2.099750 -48.953291 3.996391 -17.056996 2.917325 -35.155820 41.775670 31.189485 -3.000457 12.480832 -3.848055 37.057085 -6.731909 11.254390 -14.131634 0.000000 0.000000 0.000000 -2.918849 -47.209735 0.758444 -1.399397 2.489210 2.383760 2.737853 0.939689 2.159781 -0.087432 -0.572428 0.011688 0.000000 0.000000 0.000000 2.547746 3.260231 2.073849 -5.847790 15.288993 -5.693664 -2.838059 19.345992 -5.453752 0.000000 0.000000 0.000000 2.061621 1.880387 1.176634 0.130159 4.496080 -4.362861 4.416381 0.744736 0.057321 -7.638910 -5.752873 -58.356843 169.499026 -63.910381 166.685548 0.000000 0.000000 0.000000 4.561503 2.510073 1.018471 -4.935943 -1.597328 3.015625 2.353864 3.032256 6.937355 -0.018066 31.064499 42.267847 -178.574340 58.781810 -177.648972 0.000000 0.000000 0.000000 
3.618763 33.443321 -7.474012 0.000000 0.000000 0.000000 2.071931 -47.854426 3.288238 -31.464779 -0.637236 21.390390 24.789999 -12.479217 2.060912 10.932871 -1.265051 -29.972253 -11.686429 -2.649393 -1.297804 0.000000 0.000000 0.000000 3.234512 -42.754744 3.523837 -15.564765 1.151034 -30.222945 34.239069 28.098637 -0.642981 8.871944 -5.883434 26.588987 -6.143545 8.960908 -13.912110 0.000000 0.000000 0.000000 -2.919974 -41.824219 0.870861 -0.931231 1.934819 1.985958 2.928389 0.064684 1.959377 0.045998 -0.346895 0.099453 0.000000 0.000000 0.000000 1.766227 2.436349 1.830019 -5.466201 15.027663 -5.724938 -4.812668 20.748819 -4.971883 0.000000 0.000000 0.000000 1.774121 1.057543 1.073168 0.327737 3.798999 -5.153534 3.798435 0.864020 -0.151826 -7.566758 -6.919343 -57.761619 172.715718 -63.328592 170.766108 0.000000 0.000000 0.000000 4.289099 1.775156 0.916776 -4.899288 -0.526210 2.560157 2.326363 2.340774 7.194059 0.597008 26.361183 41.122947 -179.658386 59.446538 -177.295414 0.000000 0.000000 0.000000 
3.485929 34.570446 -7.661795 0.000000 0.000000 0.000000 2.538266 -43.970033 3.293200 -29.150998 2.786971 20.218151 25.198417 -6.464577 0.950574 9.647906 4.067724 -24.018753 -12.655252 -2.647141 -2.164926 0.000000 0.000000 0.000000 2.842857 -38.017772 2.933214 -16.627018 -0.140610 -25.929565 27.814690 24.240978 0.414037 4.879315 -7.037018 20.638260 -2.448454 7.508068 -15.542615 0.000000 0.000000 0.000000 -2.293814 -36.302735 1.269849 -0.458458 1.434072 1.537364 3.347225 -0.751107 1.629990 0.177119 -0.298795 0.132055 0.000000 0.000000 0.000000 1.522848 1.731969 1.498338 -5.313114 14.744145 -5.418755 -7.517915 22.674934 -4.749982 0.000000 0.000000 0.000000 1.777112 0.341772 0.837129 0.543581 2.971696 -5.959234 2.724861 0.938746 -0.614426 -7.921023 -7.282796 -57.758436 175.667821 -63.024560 174.476800 0.000000 0.000000 0.000000 4.245251 1.163907 0.692929 -4.792633 0.623834 2.292098 2.371377 1.904830 7.646891 0.345422 21.800477 40.625477 179.737562 61.626365 -177.330890 0.000000 0.000000 0.000000 
3.321017 35.021435 -7.979269 0.000000 0.000000 0.000000 2.940494 -39.525830 3.584374 -27.597528 4.327031 20.876021 29.369274 -3.895323 -0.814770 9.402785 7.132582 -22.095713 -13.814958 -2.661258 -2.479157 0.000000 0.000000 0.000000 2.307003 -33.545969 3.091001 -20.887185 0.835742 -23.691794 23.683679 23.315341 0.066863 4.021183 -5.064813 23.746488 0.078094 7.144126 -18.183034 0.000000 0.000000 0.000000 -1.247260 -30.743412 1.827864 -0.112195 0.949979 0.995188 3.872307 -1.409667 1.154406 0.249432 -0.275667 0.114336 0.000000 0.000000 0.000000 1.965211 1.192306 1.086910 -5.547057 14.553333 -4.717173 -10.665273 24.904065 -4.890301 0.000000 0.000000 0.000000 2.112680 -0.203419 0.445991 0.706520 2.075660 -6.468225 1.373553 0.739762 -1.291423 -8.915003 -7.623276 -58.075883 177.914229 -63.253091 177.377622 0.000000 0.000000 0.000000 4.444375 0.664139 0.336491 -4.594080 1.685052 2.194940 2.316287 1.829735 7.988682 -0.504215 17.727548 40.892991 179.862636 64.530500 -177.851214 0.000000 0.000000 0.000000 
